<svg width="141" height="142" viewBox="0 0 141 142" fill="none" xmlns="http://www.w3.org/2000/svg">
<path d="M67.678 0.174789C47.1329 1.2409 28.4489 10.6732 15.7459 26.43C7.18094 37.0368 1.94075 49.8301 0.440971 63.7256C0.0434394 67.3757 0.0434394 73.8988 0.440971 77.4947C1.99496 91.9143 7.28936 104.509 16.5591 115.856C20.7874 121.024 27.7261 127.005 33.7975 130.692C43.1395 136.366 53.3669 139.745 64.4255 140.847C67.5877 141.154 74.2012 141.118 77.4718 140.756C96.9689 138.642 114.189 129.156 126.061 113.977C134.355 103.37 139.396 90.6132 140.788 76.7719C141.095 73.6459 141.059 67.0143 140.697 63.7256C138.529 43.6503 128.591 26.0866 112.599 14.1065C102.607 6.64372 90.1747 1.81912 77.544 0.518112C74.9239 0.247068 69.756 0.0663717 67.678 0.174789ZM69.5753 8.86629C69.5753 8.95664 69.3404 10.2215 69.0513 11.7032C68.7622 13.1849 68.5634 14.504 68.6176 14.6486C68.7803 15.0461 69.5392 14.9196 69.8464 14.4498C70.009 14.2149 70.3343 13.0042 70.5692 11.7755C70.8221 10.5648 71.057 9.37223 71.1113 9.13733C71.2016 8.77594 71.31 8.73979 72.3038 8.73979C73.2615 8.73979 73.388 8.77594 73.2977 9.04698C72.9905 10.1492 72.2496 14.3594 72.34 14.5944C72.5749 15.1726 73.912 14.7028 73.912 14.0523C73.912 13.9258 74.0205 13.7451 74.165 13.6728C74.2915 13.6005 74.7071 12.95 75.0504 12.2453C75.8816 10.601 76.5141 9.84204 77.4356 9.4445C78.9715 8.75786 80.1822 9.73362 80.0196 11.4864C79.9834 11.8658 80.0015 12.173 80.0738 12.173C80.2364 12.173 81.5013 10.7636 81.5013 10.5648C81.5013 10.4745 81.3387 10.3661 81.1218 10.3119C80.8327 10.2396 80.7604 10.095 80.8146 9.60713C80.8688 9.04697 80.905 9.01083 81.5736 9.01083C82.206 9.01083 82.2963 9.06505 82.4409 9.55293C82.6577 10.4022 82.3144 11.1431 81.1399 12.2634C80.0557 13.2753 80.0557 13.2933 80.0557 14.3233C80.0557 14.8835 80.1461 15.4436 80.2726 15.5701C80.652 15.9496 81.2664 15.805 81.8085 15.2449C82.2963 14.7389 82.7662 14.5401 82.7662 14.8473C82.7662 14.9196 82.5132 15.3171 82.2241 15.7327C81.5916 16.6001 80.7243 17.0518 79.7305 17.0518C78.8631 17.0518 78.321 16.5097 78.1403 15.4436C77.9416 14.251 77.9416 14.251 76.7309 15.3894C75.7551 16.2929 75.5022 16.4555 75.0685 16.3652L74.5806 16.2748L75.195 15.7147C75.5383 15.4075 76.3334 14.7028 76.9477 14.1607L78.0681 13.1669L77.9235 11.8116C77.8151 10.619 77.7428 10.4564 77.4175 10.4022C76.9297 10.3299 76.0804 11.3238 75.5022 12.6609C75.2673 13.1849 74.9962 13.6186 74.9059 13.6186C74.7975 13.6186 74.5445 14.0161 74.3096 14.5221C73.7856 15.6785 72.864 16.329 71.7979 16.329C70.9667 16.329 70.2981 15.8773 70.2981 15.281C70.2981 15.0461 70.2078 15.0822 69.8825 15.4617C68.9068 16.6724 67.0817 16.7266 66.5938 15.552C66.377 15.0461 66.3589 15.028 66.2505 15.3894C65.853 16.6362 63.7569 17.1602 62.8715 16.2206C62.492 15.805 62.4378 15.6063 62.474 14.504L62.5101 13.2572L61.7512 13.3656C61.3356 13.4379 60.9561 13.5102 60.92 13.5463C60.8838 13.5825 60.7754 14.3956 60.7032 15.3533C60.6309 16.2929 60.5405 17.106 60.5044 17.1422C60.4682 17.1783 59.9623 17.2687 59.4021 17.3409C58.4264 17.4494 58.3722 17.4494 58.4987 17.1241C58.5709 16.8892 58.3541 17.0157 57.8662 17.4493C56.1315 19.0033 54.6137 17.9372 54.5775 15.1545C54.5595 13.9619 54.2884 14.7931 54.0355 16.7808C53.909 17.7746 53.7463 18.7142 53.6741 18.8588C53.5114 19.184 51.8671 19.6719 51.6864 19.4551C51.6141 19.3828 51.2527 18.5155 50.8733 17.5397C50.5119 16.582 50.1866 15.7869 50.1686 15.7869C50.1505 15.7869 50.1686 16.5639 50.2047 17.5036C50.2589 18.5877 50.2047 19.4189 50.0782 19.7442C49.6988 20.6115 48.3797 20.9549 47.5665 20.3766C47.1871 20.1056 47.1509 20.1237 46.8257 20.8826C46.4824 21.7138 45.4524 22.7438 44.6935 23.0329C43.3202 23.5569 42.1818 22.9244 41.5674 21.262C40.5375 18.5155 41.0615 16.2206 42.9226 15.2268C44.1875 14.5582 45.091 15.1003 45.3078 16.6543C45.4343 17.6481 45.0729 18.6058 44.2417 19.5093L43.5189 20.2863L43.8442 20.8284C44.0249 21.1175 44.2959 21.4066 44.4586 21.4427C45.1813 21.6234 46.3378 20.5573 46.7353 19.3286C47.0787 18.3167 47.2413 18.136 47.8557 18.136C48.3435 18.136 48.6507 18.7865 48.3977 19.2924C48.2893 19.5093 48.2893 19.69 48.3977 19.7984C48.6688 20.0694 49.3193 19.6358 49.4638 19.0756C49.5723 18.66 49.3012 15.0461 49.0302 13.2572C48.9398 12.6248 48.9398 12.6248 49.9156 12.3176C50.4396 12.155 50.9275 12.0827 50.9998 12.1369C51.054 12.2092 51.5419 13.4018 52.0659 14.7931C52.6622 16.329 53.0597 17.1783 53.1139 16.9615C53.15 16.7627 53.3488 15.3533 53.5657 13.8174L53.9451 11.0346L54.9209 10.6913C55.5894 10.4745 55.9508 10.4203 56.0231 10.5468C56.0954 10.6552 56.258 11.92 56.3845 13.3656C56.6375 16.1664 56.8182 16.6724 57.4687 16.329C57.8843 16.1122 58.1915 15.5882 58.1915 15.1003C58.1915 14.9015 58.2999 14.7028 58.4445 14.6486C58.6251 14.5763 58.7155 13.9258 58.8239 12.1911C58.8962 10.601 59.0227 9.82398 59.1492 9.80591C59.2756 9.80591 59.7635 9.73362 60.2514 9.66135L61.1368 9.51678L61.0103 11.0527L60.8838 12.5886L61.6247 12.4802C62.0403 12.426 62.4198 12.3357 62.474 12.2814C62.5463 12.2272 62.6366 11.5767 62.6908 10.8359C62.7631 10.095 62.8715 9.42643 62.9257 9.35416C62.998 9.28188 63.4859 9.19154 63.9918 9.13733C64.7869 9.06505 64.9134 9.10119 64.823 9.31802C64.7688 9.48065 64.6604 10.8178 64.5881 12.3356C64.4797 14.7028 64.4978 15.0642 64.7507 15.1726C65.1844 15.3352 65.7084 14.9557 65.9795 14.3052C66.106 13.98 66.3047 13.6186 66.4132 13.5102C66.5216 13.3837 66.8107 12.2814 67.0275 11.0166L67.4612 8.73979H68.5092C69.1055 8.73979 69.5753 8.79401 69.5753 8.86629ZM92.0539 12.5344C92.5057 12.7151 92.8851 12.95 92.8851 13.0223C92.8851 13.0946 92.5238 14.2872 92.0901 15.6424C91.3312 17.9914 91.2769 18.4974 91.801 17.865C91.9275 17.7204 92.9032 16.7808 93.9693 15.7869L95.9028 13.98L96.9327 14.3956L97.9446 14.8112L96.4087 17.1602C95.5775 18.4432 94.8728 19.6358 94.8728 19.8165C94.8728 19.9972 95.0535 20.1959 95.2884 20.2863C95.7944 20.4851 96.3726 20.1598 97.8181 18.8769C99.1553 17.7023 100.113 17.2506 101.251 17.2325C102.209 17.2325 103.42 17.7565 103.727 18.2986C103.962 18.7504 103.962 19.5996 103.727 20.2321C103.492 20.8464 103.655 21.0271 104.576 21.1536C105.172 21.2259 105.444 21.1356 106.455 20.5031C109.256 18.7504 111.84 18.5697 112.346 20.0695C112.726 21.1898 111.696 22.6173 109.834 23.575C108.823 24.0809 108.642 24.3158 108.931 24.7495C109.148 25.0747 110.142 25.5265 110.919 25.653C111.443 25.7252 111.623 25.8337 111.551 26.0144C111.425 26.3396 110.882 26.3396 109.726 25.9963L108.804 25.7072L108.046 26.5384C107.25 27.4057 105.895 27.9659 105.064 27.8032C104.829 27.749 104.432 27.6768 104.179 27.6226C103.528 27.478 102.516 26.5203 102.281 25.8156C101.974 24.894 102.336 24.0267 103.474 22.816L104.45 21.8041L103.781 21.6054C103.131 21.4066 103.113 21.4247 102.065 22.3824C100.763 23.593 99.5709 24.0267 98.4144 23.7195C97.1496 23.3762 96.3364 22.5269 96.3184 21.515C96.3184 20.9368 96.3545 20.9549 95.5052 21.3163C94.6379 21.6776 93.7886 21.5331 93.1743 20.9007C92.3792 20.1056 92.4876 19.5996 94.0597 17.0518C94.15 16.9073 93.4272 17.5216 92.4515 18.4251L90.6806 20.0875L89.741 19.7081C89.2351 19.5093 88.8014 19.3286 88.7833 19.3105C88.7653 19.2925 89.0182 18.407 89.3616 17.3048C89.7049 16.2206 89.994 15.2991 89.994 15.2449C89.994 15.1906 89.6326 15.6966 89.1989 16.3471C87.7534 18.4974 86.6331 19.0214 85.5308 18.0637C84.6093 17.2687 85.0249 15.4256 86.109 15.4256C86.6692 15.4256 86.9944 15.8592 86.8499 16.4194C86.7776 16.7085 86.615 16.8711 86.3801 16.8711C85.9825 16.8711 85.9103 17.2325 86.2355 17.5578C86.8318 18.1541 87.6088 17.4313 89.4338 14.5221C90.265 13.2391 90.9878 12.173 91.0782 12.173C91.1685 12.173 91.6022 12.3356 92.0539 12.5344ZM39.2907 18.6962C40.1219 19.3647 40.5375 20.3947 40.4471 21.6415C40.3929 22.2559 40.3026 22.8883 40.2122 23.0509C40.1038 23.322 40.1761 23.3762 40.6278 23.3762C40.9711 23.3762 41.4048 23.575 41.7662 23.8641C42.4348 24.4242 43.1937 25.9421 43.1937 26.701C43.1937 27.5683 42.5251 28.7248 41.8565 29.05C40.9711 29.4657 40.5194 29.4114 39.9231 28.8151C39.2545 28.1285 39.2184 27.225 39.8508 26.1589L40.3026 25.3819L39.8327 25.0205C39.2545 24.5688 39.2184 24.5688 38.7305 24.9121C38.3691 25.1651 38.3149 25.1651 38.1342 24.8218C37.9716 24.5146 38.0077 24.3519 38.3872 23.9002C38.9473 23.2316 38.9835 22.4908 38.5137 21.4427C38.1161 20.6115 37.4295 20.0514 36.9777 20.2321C36.5621 20.3947 36.1646 21.1898 35.9658 22.3281C35.8032 23.1413 35.8394 23.3943 36.255 24.4242C36.8332 25.8879 36.8151 27.5683 36.2188 28.3815C35.5502 29.2669 34.701 29.7367 33.8517 29.6644L33.0747 29.6102V30.3872C33.0747 31.7424 32.2074 32.7724 31.069 32.7724C30.6895 32.7724 29.6053 31.8147 29.0994 31.0016L28.8283 30.586L28.2501 31.1823L27.6538 31.7966L28.6657 33.2964L29.6595 34.7781L28.9368 35.5732C28.485 36.0611 28.1598 36.2779 28.0513 36.1695C27.9429 36.0611 27.8526 36.2779 27.7803 36.7658C27.5996 38.1391 26.66 38.9341 25.5577 38.6631C24.9795 38.5185 24.2748 37.8319 22.2691 35.4286L20.9319 33.8746L21.5282 33.0434C21.8535 32.5917 22.1787 32.2484 22.251 32.2664C22.3233 32.3026 23.2087 33.2783 24.2206 34.4348C25.2144 35.6093 26.154 36.567 26.2805 36.567C26.7142 36.567 26.9672 36.0611 26.8768 35.4467C26.8226 35.1214 26.7503 34.6878 26.7142 34.489C26.6781 34.2902 26.0276 33.188 25.2686 32.0315L23.8773 29.9355L24.6543 29.1765L25.4313 28.4176L26.2805 29.7186L27.1479 31.0016L27.6719 30.4956C27.961 30.2246 28.1959 29.8993 28.1959 29.809C28.1959 29.7006 27.8707 29.1223 27.4731 28.526C27.0756 27.9297 26.7503 27.3515 26.7503 27.2431C26.7503 26.9178 27.9971 25.8156 28.1778 26.0144C28.2682 26.1047 28.991 27.1708 29.8041 28.3815C31.3581 30.7305 31.7918 31.0558 32.1893 30.1704C32.3519 29.827 32.3158 29.5199 31.9905 28.6887C31.0328 26.1589 30.9244 25.7614 30.9244 24.9121C30.9063 23.4123 31.7556 22.039 32.9482 21.5873C33.5264 21.3705 34.2131 21.5692 34.8275 22.1475L35.225 22.5269L35.3153 22.0932C35.3695 21.8583 35.4418 21.2982 35.5141 20.8464C35.6406 19.8707 36.2007 18.9491 36.8332 18.5877C37.556 18.2083 38.7124 18.2444 39.2907 18.6962ZM70.8583 26.1408C72.9363 27.5322 72.2316 30.8209 69.756 31.2365C68.8887 31.381 67.5515 30.8028 66.9914 30.0439C66.124 28.8513 66.63 26.7371 67.9491 26.0505C68.8345 25.5988 70.0994 25.6168 70.8583 26.1408ZM116.502 31.381L117.875 32.9712L117.171 32.8627C116.773 32.7905 116.213 32.682 115.906 32.6098C115.472 32.5375 114.713 31.8689 112.96 30.0258L110.575 27.5503L111.262 27.0985L111.949 26.6649L113.539 28.2188C114.424 29.0862 115.743 30.5137 116.502 31.381ZM118.309 34.2722C121.598 35.2118 123.423 37.0187 123.423 39.3136C123.423 42.6926 119.466 45.2404 114.207 45.2404C111.894 45.2404 110.846 44.9332 110.051 44.0478C109.383 43.2708 109.292 42.2047 109.871 41.6265C110.069 41.4277 110.322 41.2651 110.431 41.2651C110.846 41.2651 111.28 41.6446 111.407 42.1144C111.587 42.9275 111.985 43.3973 112.816 43.831C113.448 44.1743 113.846 44.2285 115.201 44.2285C117.369 44.2105 118.598 43.7406 119.682 42.53C122.104 39.8376 120.477 36.2056 116.303 35.013C114.677 34.5613 111.063 34.742 108.877 35.3744C105.389 36.4044 100.312 39.3678 95.6859 43.1082C94.4933 44.0478 91.7648 46.415 89.6326 48.3303C79.7666 57.2206 75.7913 60.3466 71.2739 62.786C70.0271 63.4546 69.5573 63.816 69.3946 64.2135C69.1778 64.7195 69.2139 64.7737 70.3885 65.8579C72.7375 68.0624 75.5744 73.1038 78.6101 80.4762C84.0491 93.6309 87.0306 98.2567 92.0359 101.31C94.5476 102.828 98.5229 103.497 100.926 102.792C103.257 102.124 105.118 100.768 106.708 98.6362C107.25 97.8953 107.901 97.1544 108.154 96.9918C109.256 96.269 110.124 97.4255 109.69 99.0156C108.786 102.196 103.275 104.455 97.2761 104.075C91.9094 103.75 88.1328 102.087 84.3744 98.3651C80.5436 94.5886 77.7789 89.5471 74.3999 80.1871C73.7494 78.4162 72.8459 75.9769 72.3942 74.7843C71.3642 72.11 69.1778 67.6468 68.6899 67.2131C68.3285 66.8878 68.3105 66.8878 68.1478 67.3034C66.6661 71.098 63.0522 79.2474 61.3175 82.7168C58.0831 89.1677 53.2223 95.4559 48.8856 98.7446C42.1276 103.912 34.6106 106.533 27.4731 106.262C24.4374 106.135 23.1183 105.846 21.0223 104.87C15.4207 102.25 14.2462 95.8534 18.5467 91.5348C20.5525 89.5291 23.4255 88.5172 26.7503 88.6437C28.1778 88.6979 28.6296 88.8063 29.4608 89.2219C31.4123 90.1976 32.5145 91.6974 32.5326 93.3418C32.5326 94.4079 31.8279 95.3294 31.0148 95.3294C30.2378 95.3294 29.9848 94.9319 29.8222 93.4321C29.4969 90.6313 28.5031 89.764 25.7746 89.9085C24.1483 89.9989 23.3532 90.3241 22.1064 91.4083C20.5344 92.7635 19.649 95.6185 20.0465 98.0579C20.7332 102.25 24.0218 104.689 28.9368 104.689C33.9782 104.689 39.2726 102.449 44.3321 98.2025C49.8975 93.5044 53.2223 88.3184 60.1791 73.429C61.4982 70.5921 62.8896 67.6648 63.269 66.9059L63.9557 65.5326L63.1968 65.6772C61.8957 65.9301 59.4925 65.8759 58.9143 65.5687C58.4264 65.3158 57.8662 64.2316 58.0831 63.8883C58.1192 63.816 58.5348 63.563 58.9865 63.3462C60.1249 62.768 61.7873 62.5331 63.522 62.6957C64.3171 62.786 65.0218 62.8402 65.076 62.8583C65.1483 62.8583 65.9614 61.3585 66.901 59.5154C72.4665 48.511 78.5379 41.3193 84.808 38.2656C85.3682 37.9764 85.838 37.6873 85.838 37.615C85.838 37.3982 83.5612 36.7658 81.3206 36.3502C78.4656 35.8262 72.1051 35.7719 69.6657 36.2598C65.2206 37.1452 61.0645 38.898 57.035 41.5723C47.7834 47.716 40.1038 59.3889 39.634 68.0081C39.4171 71.8931 40.6459 74.5132 43.1756 75.6516C44.2237 76.1214 47.44 76.3021 48.9579 75.9588C52.9332 75.0914 55.3003 71.9473 55.0835 67.8455C55.0112 66.6891 54.8667 66.0024 54.5233 65.1712C54.2523 64.5569 54.0355 63.8702 54.0355 63.6714C54.0355 63.1113 54.8305 62.4066 55.463 62.4066C56.9447 62.4066 57.6855 63.4004 57.7939 65.5687C57.8843 67.3757 57.559 68.8213 56.5471 70.8993C55.9328 72.1642 55.4991 72.7243 54.1439 74.0615C51.4154 76.79 48.8133 77.8199 44.7296 77.8019C39.8508 77.8019 36.9416 76.3925 35.2792 73.2845C32.2074 67.5203 35.8574 57.4916 44.2598 48.6194C50.8371 41.6988 59.9442 36.7116 69.0332 35.1034C72.0689 34.5613 77.2369 34.4348 80.399 34.8323C84.3924 35.3563 88.0606 36.6031 88.2955 37.5608C88.44 38.1571 88.3316 38.2655 87.3378 38.645C83.0372 40.2171 79.1161 44.3008 75.3034 51.1311C73.912 53.6247 71.1113 59.66 71.2739 59.8226C71.3462 59.8949 72.3942 59.0275 75.8094 56.0099C86.5066 46.6137 88.3497 45.0597 91.6203 42.6745C98.035 38.0126 104.486 35.0492 110.142 34.1276C112.183 33.8024 116.936 33.8927 118.309 34.2722ZM21.0403 42.1144C22.3413 43.1986 23.1906 42.6745 22.3956 41.2651C21.8173 40.2351 22.1787 39.9099 22.8473 40.8676C24.1302 42.7287 23.6785 44.879 21.998 44.879C21.6186 44.879 21.4921 44.9513 21.5644 45.132C22.2871 46.9932 21.221 48.7098 19.5406 48.4026C17.4445 48.0231 15.3665 45.6199 15.3665 43.578C15.3665 42.53 15.8724 41.4458 16.3784 41.4458C16.5591 41.4458 16.6133 41.3374 16.541 41.1206C16.4868 40.9218 16.6494 40.4158 16.9205 39.928L17.3903 39.0968L18.8539 40.3074C19.667 40.976 20.6609 41.7891 21.0403 42.1144ZM125.121 44.4634C130.036 54.2933 132.15 66.8878 130.741 78.1271C130.289 81.7411 128.934 87.9931 128.482 88.481C128.338 88.6437 127.037 88.0835 127.037 87.8486C127.037 87.7763 127.326 86.6199 127.669 85.3188C129.856 76.8984 130.072 67.9178 128.284 58.9733C127.452 54.7993 125.537 49.0893 123.856 45.7464C123.513 45.0778 123.242 44.4454 123.242 44.3369C123.242 44.1562 124.164 42.8914 124.272 42.8914C124.308 42.8914 124.688 43.5961 125.121 44.4634ZM15.8905 48.0593C17.9866 49.1796 18.4925 49.3964 18.7094 49.2157C18.8539 49.0893 18.9804 48.8724 18.9804 48.7459C18.9804 48.3484 19.4683 48.4568 19.7755 48.8905C20.1911 49.4687 20.1369 50.5168 19.7032 50.9866C19.0165 51.7093 18.095 51.5287 15.6917 50.2276C13.5595 49.0712 13.162 49.017 13.6137 49.9566C13.8667 50.4625 14.7521 51.1131 16.7217 52.2514C17.842 52.9019 18.2395 53.2633 18.5106 53.7874C18.7997 54.4017 18.8178 54.5463 18.5829 55.1426C18.4383 55.5762 18.1492 55.9015 17.7878 56.0822L17.2457 56.3532V58.1602C17.2638 60.2382 16.9385 61.1417 15.9808 61.7741L15.4207 62.1536L16.017 62.8222C16.812 63.6714 16.8843 64.8098 16.1977 65.6049C15.8182 66.0386 15.6556 66.1108 14.9689 66.0566C12.9813 65.894 12.7645 65.9121 12.6922 66.2554C12.5476 66.942 13.1078 67.3757 14.716 67.8275L16.27 68.2611L16.1435 69.273C16.0893 69.8151 16.017 70.303 15.9808 70.3211C15.9628 70.3572 15.1135 70.1404 14.1197 69.8332C13.1078 69.526 11.4815 69.02 10.5057 68.7309L8.71686 68.1708L8.80721 67.1408C8.86141 66.5806 8.91562 66.0928 8.95176 66.0747C8.96983 66.0386 9.5842 66.2193 10.307 66.4722C11.0298 66.7252 11.6622 66.9059 11.6803 66.8698C11.7164 66.8517 11.1743 66.1831 10.4877 65.4061C9.1686 63.9244 8.84334 63.1294 9.20474 62.4246C9.43964 61.991 10.4515 61.9006 10.8129 62.262C11.1563 62.6053 11.0659 63.2558 10.6503 63.545C10.1986 63.8702 10.3251 64.1955 11.1924 65.0086C11.7164 65.5145 11.7526 65.5145 11.7526 65.1531C11.7526 64.5388 12.132 63.8883 12.5476 63.7799C12.7464 63.7256 13.3969 63.7799 13.9751 63.8883C15.0593 64.1232 15.3484 63.9967 15.3665 63.3462C15.3665 62.9487 14.3365 62.0994 13.1801 61.5392C11.3731 60.6719 10.1082 59.0998 10.0901 57.7265C10.0721 56.5159 10.1263 56.299 10.6142 55.7208C11.0659 55.1787 11.1563 55.1426 12.0959 55.2149C13.3427 55.3052 14.8967 55.9918 15.9086 56.9134L16.6856 57.6181L16.5771 56.9495C16.5229 56.5159 16.288 56.1003 15.9628 55.8292C15.5291 55.4498 15.493 55.3594 15.6917 54.9257C15.9447 54.3475 16.7036 54.2752 17.0289 54.8173C17.318 55.2691 17.4806 55.2691 17.6975 54.8354C17.9685 54.3294 17.4083 53.7151 15.9447 52.9019C13.3427 51.4564 12.4753 50.6252 12.4753 49.5591C12.4753 49.0893 13.1439 46.686 13.2704 46.686C13.3246 46.686 14.4991 47.3004 15.8905 48.0593ZM8.33739 70.9896C9.87331 71.1342 11.4634 71.2968 11.8971 71.333C12.3127 71.3872 13.3607 71.4775 14.192 71.5498C15.0412 71.6221 15.8001 71.7666 15.8905 71.875C15.9628 71.9835 16.0893 72.5978 16.1615 73.2483C16.2338 73.8988 16.4687 76.0491 16.7036 78.0368C16.9385 80.0244 17.1012 81.6868 17.065 81.723C17.047 81.7411 14.7702 81.5604 12.0236 81.2893C9.27701 81.0183 6.98217 80.8556 6.90989 80.9279C6.83762 81.0002 7.09059 81.3255 7.45198 81.6507C8.28319 82.4277 9.4035 82.753 10.4515 82.5C11.1743 82.3374 11.2105 82.3554 11.2105 82.753C11.2105 83.801 9.72876 84.2527 8.3916 83.6203C7.16287 83.0421 5.82572 81.0363 5.51853 79.3378C5.35591 78.5247 4.84996 78.5427 10.8491 79.121C13.3788 79.3739 15.5291 79.5727 15.6195 79.5727C15.764 79.5727 15.6737 78.0187 15.5291 77.8561C15.4568 77.8019 12.3669 77.4586 7.66882 77.0249L5.28363 76.79L5.17521 76.1575C4.94031 74.6758 4.94031 74.6578 6.11483 74.7843C11.2285 75.3083 14.3546 75.5974 14.8244 75.5974H15.3665L15.24 74.73C15.1858 74.2602 15.1135 73.8446 15.0774 73.8085C15.0412 73.7724 12.7283 73.5194 9.92752 73.2303C7.1448 72.9592 4.83189 72.7062 4.81382 72.6701C4.77768 72.652 4.7054 72.1822 4.65119 71.6582C4.5247 70.5379 4.21752 70.5921 8.33739 70.9896ZM13.5595 84.3069C13.9932 86.0597 15.24 90.1254 15.6375 91.1553L16.0712 92.2576L15.5652 93.1611C15.2761 93.6489 15.0051 93.9742 14.9328 93.8838C14.4088 93.0165 11.7526 84.7045 11.7526 83.8913C11.7526 83.7287 12.2043 83.6022 12.8729 83.5661C13.3065 83.548 13.3969 83.6384 13.5595 84.3069ZM124.995 89.782C126.422 90.7578 127.416 91.318 127.651 91.2818C128.193 91.2095 128.247 90.4868 127.76 89.8362C127.525 89.511 127.416 89.1857 127.488 89.005C127.579 88.7521 127.687 88.8063 128.121 89.3303C128.862 90.2157 129.277 91.336 129.133 92.0949C128.988 92.9081 128.41 93.4863 127.76 93.4863C127.127 93.4863 127.145 93.4682 127.488 94.1368C127.633 94.4259 127.76 94.8415 127.76 95.0764C127.76 95.5462 127.326 96.6485 127.091 96.793C126.693 97.046 125.862 97.0641 125.338 96.8473C124.886 96.6666 121.02 94.1187 120.477 93.667C120.369 93.5767 120.929 91.9865 121.164 91.7155C121.2 91.6793 122.266 92.3479 123.531 93.2153C125.844 94.7693 126.513 95.0042 126.639 94.3356C126.748 93.7574 126.169 93.1611 123.965 91.6793C122.772 90.8662 121.797 90.1615 121.797 90.1073C121.797 89.9447 122.574 88.2461 122.646 88.2461C122.682 88.2461 123.748 88.9328 124.995 89.782ZM121.291 96.8473C122.375 97.3893 123.766 98.7265 124.2 99.6661C124.796 100.949 124.417 102.883 123.459 103.352C123.079 103.551 123.098 103.587 124.182 104.527C124.796 105.069 125.41 105.593 125.573 105.701C125.808 105.882 125.808 106.045 125.591 106.93C125.465 107.49 125.284 107.996 125.23 108.032C125.085 108.123 116.195 100.425 116.195 100.226C116.195 100.172 116.412 99.7384 116.683 99.2505L117.153 98.3651L117.586 98.7626L118.002 99.1421V98.5819C118.002 98.2748 118.128 97.7327 118.291 97.3893C118.833 96.2871 119.827 96.1064 121.291 96.8473ZM116.448 103.081C116.701 103.28 117.044 103.696 117.189 103.967C117.532 104.635 117.532 106.153 117.189 106.984C117.044 107.328 116.918 107.689 116.918 107.761C116.918 107.996 118.128 108.538 118.436 108.43C119.032 108.195 119.447 107.183 119.447 105.9C119.447 104.509 119.682 104.328 119.972 105.485C120.369 107.111 120.134 108.611 119.321 109.586C118.201 110.905 116.918 110.851 115.472 109.388C113.412 107.346 112.997 104.942 114.406 103.334C115.057 102.593 115.725 102.503 116.448 103.081ZM24.6001 107.852C25.1241 107.942 25.4674 108.231 26.407 109.315C27.0395 110.074 28.5754 111.664 29.8222 112.875C36.1646 119.055 43.5912 123.59 52.2827 126.608C52.5718 126.716 52.5538 126.789 52.1201 127.439L51.6503 128.162L50.1866 127.62C41.4409 124.403 33.8698 119.488 27.4551 112.857C25.3409 110.689 22.9557 107.924 22.9557 107.671C22.9557 107.599 23.1726 107.599 23.4617 107.653C23.7327 107.707 24.2387 107.797 24.6001 107.852ZM112.111 108.141C112.635 108.556 112.726 109.225 112.31 109.568C112.075 109.749 111.967 109.713 111.659 109.315C111.461 109.062 111.135 108.845 110.937 108.845C110.413 108.845 110.485 110.074 111.063 111.249C111.659 112.423 112.653 113.67 113.123 113.815C114.009 114.104 114.93 112.893 114.93 111.429C114.93 110.526 115.147 110.074 115.382 110.472C115.436 110.562 115.49 111.213 115.508 111.899C115.526 113.923 114.514 115.531 113.051 115.802C112.256 115.965 111.551 115.585 110.611 114.519C108.823 112.477 108.66 109.568 110.268 108.213C110.919 107.671 111.479 107.635 112.111 108.141ZM101.649 113.995C101.071 117.537 101.071 117.41 101.739 117.067C103.149 116.344 103.98 116.977 104.703 119.38C105.227 121.097 105.552 121.621 106.13 121.711C106.492 121.765 106.437 121.838 105.733 122.362C104.847 123.012 104.269 123.084 103.871 122.615C103.709 122.452 103.329 121.53 103.022 120.573C102.679 119.507 102.281 118.675 102.01 118.422C101.595 118.025 101.559 118.025 101.107 118.314C100.854 118.477 100.655 118.639 100.655 118.675C100.655 118.766 102.083 122.741 102.354 123.373L102.625 124.024L101.83 124.566C101.396 124.855 100.962 125.108 100.872 125.108C100.782 125.108 99.9504 123.012 99.0288 120.446C98.1073 117.898 97.3122 115.73 97.2761 115.658C97.1315 115.423 96.7159 116.128 96.5894 116.814C96.4268 117.663 96.752 118.802 97.3483 119.507C97.8724 120.139 97.7278 120.41 96.8243 120.41C96.0473 120.41 95.4149 119.507 95.4149 118.35C95.4149 117.158 95.6498 116.435 96.4449 115.242C97.0954 114.248 98.3964 113.2 98.6494 113.471C98.7397 113.562 99.1372 114.519 99.5167 115.604L100.239 117.573L100.348 116.688C100.42 116.2 100.511 114.971 100.583 113.941L100.709 112.08L101.342 111.646C101.703 111.393 102.01 111.231 102.028 111.249C102.065 111.267 101.884 112.514 101.649 113.995ZM107.413 114.519C108.823 117.158 109.13 117.591 109.545 117.429C109.961 117.266 110.25 116.344 110.051 115.802C109.943 115.495 109.961 115.314 110.142 115.17C110.467 114.899 110.593 115.152 110.72 116.326C110.846 117.591 110.72 118.097 110.033 118.874C109.292 119.705 108.335 119.76 107.612 119.001C107.142 118.495 104.63 113.977 104.63 113.634C104.648 113.507 106.022 112.297 106.202 112.279C106.221 112.279 106.763 113.291 107.413 114.519ZM59.9623 120.482C60.1249 120.573 59.4744 122.036 57.6313 125.614C56.24 128.361 55.0474 130.656 55.0112 130.692C54.9209 130.8 52.9513 130.348 52.9513 130.222C52.9513 130.168 54.0174 128.053 55.3184 125.542C56.6013 123.012 57.5771 120.952 57.4687 120.952C57.1434 120.952 55.9508 121.621 55.6437 121.964C55.1738 122.506 54.7763 123.392 54.7221 124.006C54.6679 124.656 54.3788 124.729 53.8548 124.205C52.7706 123.12 54.0174 121.205 56.258 120.482C57.035 120.229 59.5648 120.229 59.9623 120.482ZM90.8975 124.566C91.1505 127.24 91.295 127.819 91.7106 127.819C92.1624 127.819 92.7044 127.132 92.7044 126.554C92.7044 126.174 92.7948 126.012 92.9936 126.012C93.4814 126.012 93.1923 127.692 92.596 128.487C91.7468 129.607 90.3193 129.879 89.741 129.047C89.4881 128.704 89.47 128.722 89.1628 129.355C88.5846 130.601 87.2294 131.053 86.3259 130.33C85.7296 129.879 85.5489 129.21 85.2959 126.554C85.1875 125.415 85.061 124.259 85.0068 123.988C84.9164 123.536 84.9707 123.482 85.9103 123.193C86.4704 123.012 86.9583 122.904 86.9944 122.958C87.0306 122.994 87.1932 124.223 87.3378 125.668C87.6811 128.722 87.7353 128.939 88.2593 128.867C89.0363 128.758 89.1267 128.072 88.8195 125.18C88.6569 123.735 88.5846 122.488 88.6388 122.416C88.7111 122.362 89.1267 122.181 89.5965 122.018C90.1928 121.819 90.4819 121.783 90.5542 121.928C90.6084 122.036 90.771 123.229 90.8975 124.566ZM62.3294 124.132C62.8354 124.241 62.9076 124.313 62.8173 124.656C62.7089 125.054 62.745 125.072 63.7569 124.982C64.6965 124.891 64.8592 124.927 65.347 125.343C65.8349 125.777 65.8711 125.885 65.853 127.042C65.7988 129.915 63.9738 132.336 61.8596 132.336C61.6789 132.336 61.2272 132.191 60.8838 132.011L60.2514 131.685L59.6551 133.348C59.113 134.884 59.0227 135.01 58.5167 135.119C57.7036 135.281 56.7098 135.245 56.782 135.065C56.8182 134.992 57.7217 132.462 58.8239 129.463C60.7393 124.187 60.8116 124.024 61.2814 124.024C61.5524 124.024 62.0222 124.078 62.3294 124.132ZM82.4951 127.06C82.3867 129.553 82.4048 129.951 82.6577 130.15C83.0553 130.493 83.8323 129.969 83.9768 129.264C84.0491 128.885 84.1756 128.722 84.4105 128.722C84.6996 128.722 84.7357 128.812 84.6454 129.21C84.4647 130.005 83.7961 131.089 83.2721 131.487C82.5312 132.029 81.3567 131.975 80.8327 131.36C80.4894 130.945 80.4171 130.674 80.4171 129.626C80.4171 128.288 80.5075 128.361 79.2968 128.614C78.827 128.722 78.8089 128.758 78.6824 130.529C78.6282 131.523 78.5198 132.372 78.4475 132.408C78.3933 132.444 77.9054 132.535 77.3814 132.607L76.4237 132.734L76.5141 131.234C76.5683 130.403 76.6767 128.686 76.7309 127.421C76.8574 124.891 76.749 125.054 78.2126 124.837L79.0077 124.711L78.8812 126.265L78.7547 127.837L79.5317 127.71C79.9654 127.638 80.3629 127.566 80.399 127.511C80.4532 127.475 80.5255 126.771 80.5617 125.921C80.652 124.241 80.5978 124.313 82.1157 124.223L82.6397 124.205L82.4951 127.06ZM70.6595 125.433C70.6595 125.524 70.4246 126.789 70.1174 128.234C69.8283 129.698 69.6295 131.017 69.6838 131.161C69.8464 131.577 70.6234 131.487 70.9306 131.017C71.0751 130.782 71.4004 129.589 71.6533 128.343C71.9063 127.114 72.1412 125.921 72.1954 125.686C72.2858 125.325 72.3942 125.289 73.388 125.289C74.3457 125.289 74.4722 125.325 74.3819 125.596C74.0747 126.698 73.3338 130.908 73.4242 131.143C73.4964 131.306 73.7494 131.433 74.0024 131.433C74.3457 131.433 74.5626 131.27 74.8336 130.8C75.2673 130.077 75.8274 129.915 75.6106 130.565C75.3757 131.342 74.5987 132.318 74.0024 132.589C72.7917 133.167 71.4004 132.77 71.3823 131.83C71.3642 131.559 71.3281 131.559 71.057 131.884C70.4969 132.553 69.8645 132.878 69.1597 132.878C68.2563 132.878 67.8407 132.643 67.6238 132.011C67.407 131.396 67.4612 130.981 68.0575 127.764L68.5273 125.289H69.5934C70.1716 125.289 70.6595 125.361 70.6595 125.433Z" fill="#033D20"/>
</svg>
